<svg width="18" height="15" viewBox="0 0 18 15" fill="none" xmlns="http://www.w3.org/2000/svg">
<path fill-rule="evenodd" clip-rule="evenodd" d="M4.21827 2.31783C2.97403 2.88658 2.0625 4.23936 2.0625 5.85251C2.0625 7.50056 2.73691 8.77087 3.70371 9.85952C4.50054 10.7568 5.46513 11.5004 6.40584 12.2256C6.62928 12.3979 6.85136 12.5691 7.06953 12.7411C7.46406 13.0521 7.81599 13.3251 8.15521 13.5233C8.49461 13.7216 8.7678 13.8122 9 13.8122C9.2322 13.8122 9.50539 13.7216 9.84479 13.5233C10.184 13.3251 10.5359 13.0521 10.9305 12.7411C11.1486 12.5691 11.3707 12.3979 11.5942 12.2256C12.5349 11.5004 13.4995 10.7568 14.2963 9.85952C15.2631 8.77087 15.9375 7.50056 15.9375 5.85251C15.9375 4.23936 15.026 2.88658 13.7817 2.31783C12.6767 1.81274 11.2246 1.89164 9.80436 3.13389L10.8977 4.2268C11.1174 4.44643 11.1174 4.80259 10.8978 5.0223C10.6782 5.24201 10.322 5.24207 10.1023 5.02244L8.60232 3.52298L8.59473 3.51524C7.05125 1.91162 5.42705 1.7653 4.21827 2.31783ZM9 2.3438C7.26596 0.79237 5.32422 0.575341 3.75057 1.29466C2.08853 2.05438 0.9375 3.81846 0.9375 5.85251C0.9375 7.85166 1.77037 9.37673 2.86254 10.6065C3.73715 11.5914 4.80767 12.4157 5.75312 13.1436C5.96744 13.3086 6.17533 13.4687 6.37306 13.6246C6.75724 13.9274 7.16966 14.2504 7.58762 14.4946C8.00539 14.7388 8.4822 14.9372 9 14.9372C9.5178 14.9372 9.99461 14.7388 10.4124 14.4946C10.8303 14.2504 11.2428 13.9274 11.6269 13.6246C11.8247 13.4687 12.0326 13.3086 12.2469 13.1436C13.1923 12.4157 14.2628 11.5914 15.1375 10.6065C16.2296 9.37673 17.0625 7.85166 17.0625 5.85251C17.0625 3.81846 15.9115 2.05438 14.2494 1.29466C12.6758 0.575341 10.734 0.79237 9 2.3438Z" fill="#899AB2"/>
</svg>
