<svg width="11" height="13" viewBox="0 0 11 13" fill="none" xmlns="http://www.w3.org/2000/svg">
<path fill-rule="evenodd" clip-rule="evenodd" d="M0.926274 0.19198C1.18835 -0.032659 1.58292 -0.00230804 1.80755 0.259771L6.80755 6.0931C7.00817 6.32716 7.00817 6.67254 6.80755 6.90659L1.80755 12.7399C1.58292 13.002 1.18835 13.0324 0.926275 12.8077C0.664196 12.5831 0.633845 12.1885 0.858484 11.9264L5.50985 6.49985L0.858484 1.07326C0.633845 0.811181 0.664196 0.416619 0.926274 0.19198ZM4.25977 0.192067C4.52185 -0.0325723 4.91641 -0.00222141 5.14105 0.259857L10.1411 6.09319C10.3417 6.32725 10.3417 6.67262 10.1411 6.90668L5.14105 12.74C4.91641 13.0021 4.52185 13.0324 4.25977 12.8078C3.99769 12.5832 3.96734 12.1886 4.19198 11.9265L8.84334 6.49993L4.19198 1.07335C3.96734 0.811268 3.99769 0.416705 4.25977 0.192067Z" fill="white"/>
</svg>
